<svg height="23.599" viewBox="0 0 128.063 23.599" width="128.063" xmlns="http://www.w3.org/2000/svg"><g fill="#ca0030"><path d="m223.605 244.639a2.613 2.613 0 0 0 -.737-.13q-3.587-.012-7.172-.009h-3.021c-.237 0-.429-.008-.606-.023a.6.6 0 0 1 -.5-.351 1.444 1.444 0 0 1 -.024-1.3.708.708 0 0 1 .7-.432q.046 0 .095 0h10.122a1.087 1.087 0 0 0 1.14-.967 2.219 2.219 0 0 0 .031-.457v-.033q0-2.528 0-5.059v-.024a2.866 2.866 0 0 0 -.021-.42 1.04 1.04 0 0 0 -1.02-1c-.105.006-.211 0-.316 0h-.176-23.975c-.3 0-.595-.005-.893.008a1.01 1.01 0 0 0 -.946 1.08c-.009 1.78-.008 3.661 0 5.752a1.066 1.066 0 0 0 .926 1.114 1.791 1.791 0 0 0 .22.012h9.944.148c.09 0 .18 0 .269.006a.666.666 0 0 1 .606.487 2.01 2.01 0 0 1 .1.561c.008.208.007.416.006.625 0 .249 0 .507.012.76a1.009 1.009 0 0 0 .877 1.006 2.539 2.539 0 0 0 .306.014h7.051q3.014 0 6.027-.005a3.147 3.147 0 0 0 .811-.118.547.547 0 0 0 .418-.57.522.522 0 0 0 -.402-.527zm-3.9-6.844c-.85.015-1.7.013-2.553.009q-.56 0-1.118 0h-1.454-2.1a1.263 1.263 0 0 1 -.424-.049 1.019 1.019 0 0 1 -.6-.712 1.258 1.258 0 0 1 .189-1.111.693.693 0 0 1 .546-.28h.293 3.169q2.075 0 4.15 0a.745.745 0 0 1 .833.619 1.46 1.46 0 0 1 -.15 1.2.958.958 0 0 1 -.786.323zm-7.418 1.167h.951 2.839c.339 0 .679 0 1.018.005q.558 0 1.116 0c.6 0 1.09-.005 1.544-.019h.026a.878.878 0 0 1 .659.291.992.992 0 0 1 .24.778 1.693 1.693 0 0 0 0 .206v.142a.792.792 0 0 1 -.619.783 2.29 2.29 0 0 1 -.442.032q-3.579 0-7.162 0a2.525 2.525 0 0 1 -.476-.05.606.606 0 0 1 -.434-.394 1.633 1.633 0 0 1 .012-1.352.724.724 0 0 1 .727-.422zm-3.95-1.557a.8.8 0 0 1 -.694.389c-.156.006-.313.007-.47.007h-6.936c-.068 0-.135 0-.2-.007a.9.9 0 0 1 -.809-1.007 1.845 1.845 0 0 1 .1-.677.739.739 0 0 1 .745-.464h1.669 4.2 1.648a.757.757 0 0 1 .806.467 1.414 1.414 0 0 1 -.06 1.287zm-8.227 1.556h1.561 3.959q.973 0 1.949 0a.754.754 0 0 1 .814.469 1.484 1.484 0 0 1 -.093 1.441.905.905 0 0 1 -.441.284.813.813 0 0 1 -.276.036h-.19-2.241-1.774c-1.241 0-2.2.005-3.106.015h-.024a1.02 1.02 0 0 1 -.784-.268 1.247 1.247 0 0 1 -.245-.949c.036-.702.319-1.026.891-1.028z" transform="translate(-129.984 -222.263)"/><path d="m207.58 218.922h-6.043-4.225c-.686 0-1.08.437-1.082 1.2q0 2.226 0 4.453v.739.22a1.013 1.013 0 0 0 .706.973 2.671 2.671 0 0 0 1.4.034.923.923 0 0 0 .717-.64 1.936 1.936 0 0 0 .106-.608c0-.772 0-1.544 0-2.318 0-.61 0-1.222 0-1.834 0-.528.282-.894.7-.909.741-.028 1.515-.032 2.445-.006a.322.322 0 0 1 .286.135.45.45 0 0 1 -.069.429c-.1.168-.206.331-.311.49-.061.092-.121.185-.181.278-.069.108-.14.217-.21.324a9.725 9.725 0 0 0 -.536.884.582.582 0 0 0 -.045.576.53.53 0 0 0 .471.239c.115.006.229.008.344.008h.31c.1 0 .2 0 .3.006a1.277 1.277 0 0 1 .422.086.257.257 0 0 1 .157.133.348.348 0 0 1 -.03.267 1.347 1.347 0 0 1 -.129.213l-.385.583c-.151.229-.3.46-.453.69l-.012.017a1.483 1.483 0 0 0 -.139.247.254.254 0 0 0 .032.246.278.278 0 0 0 .237.067.47.47 0 0 0 .2-.115q1.677-1.326 3.349-2.656l.027-.021c.144-.115.34-.271.241-.548-.082-.23-.3-.231-.449-.233h-.064c-.112 0-.222-.005-.334-.005h-.346c-.105 0-.211 0-.316 0a.871.871 0 0 1 -.337-.072c-.155-.077-.181-.16-.112-.351a1.025 1.025 0 0 1 .1-.208c.217-.315.436-.627.655-.94l.411-.588a.4.4 0 0 1 .359-.2h.561.49c.276 0 .551 0 .826.008a.849.849 0 0 1 .811.86 3.307 3.307 0 0 1 .009.333v1.011q0 1.379 0 2.758v.032a2.993 2.993 0 0 0 .032.5.936.936 0 0 0 .668.8 2.622 2.622 0 0 0 .752.115 2.489 2.489 0 0 0 .77-.125 1.121 1.121 0 0 0 .389-.238 1.08 1.08 0 0 0 .288-.882v-3.243c0-.1 0-.208 0-.311 0-.209 0-.427.008-.637.034-.6.331-.962.8-.972.672-.015 1.347-.009 2.022 0h.545c.171 0 .287.032.339.184a.472.472 0 0 1 -.1.446c-.324.483-.642.971-.96 1.457l-.037.058a2.592 2.592 0 0 0 -.221.385.64.64 0 0 0 -.023.612.544.544 0 0 0 .474.223c.1.005.2.006.3.006h.364c.1 0 .2 0 .294.006a1.221 1.221 0 0 1 .414.1.246.246 0 0 1 .142.127.326.326 0 0 1 -.028.247 1.424 1.424 0 0 1 -.128.213l-.336.51c-.175.264-.351.53-.523.8a2.015 2.015 0 0 0 -.133.251l-.058.12a.081.081 0 0 0 .024.1.412.412 0 0 0 .241.093.394.394 0 0 0 .248-.111l.023-.017c.282-.219.565-.443.846-.666l.723-.57c.554-.438 1.106-.873 1.659-1.313a1.811 1.811 0 0 0 .3-.293.386.386 0 0 0 .089-.363.34.34 0 0 0 -.259-.209 1.954 1.954 0 0 0 -.436-.04c-.123 0-.245 0-.365 0h-.215a4.1 4.1 0 0 1 -.409-.017.35.35 0 0 1 -.287-.142.44.44 0 0 1 .059-.394 1.08 1.08 0 0 1 .064-.1l.326-.467c.246-.351.492-.7.735-1.056a.367.367 0 0 1 .326-.186h.3.674c.21 0 .421 0 .632.01.678.026.822.559.822 1q0 1.348 0 2.693v1.245a4.333 4.333 0 0 0 .013.437 1.02 1.02 0 0 0 .712.924 2.6 2.6 0 0 0 1.215.066c.7-.112 1.022-.538 1.022-1.338q0-2.487 0-4.976c0-.917-.385-1.345-1.2-1.345h-8.85q-.651 0-1.3-.005a.769.769 0 0 1 -.807-.661 1.08 1.08 0 0 1 .333-1.244 1.137 1.137 0 0 1 .578-.119q2.336-.006 4.671-.006 2.7 0 5.408-.006a2.792 2.792 0 0 0 .644-.1c.066-.016.131-.032.2-.045a.521.521 0 0 0 .431-.51.611.611 0 0 0 -.388-.543.631.631 0 0 0 -.253-.07l-.13-.013a5.627 5.627 0 0 0 -.565-.039q-12.417 0-24.833 0a6.883 6.883 0 0 0 -.706.05l-.065.007a.711.711 0 0 0 -.287.1.551.551 0 0 0 -.32.547.507.507 0 0 0 .378.46l.157.042a2.749 2.749 0 0 0 .683.121q2.8.01 5.6.008h4.36.135a1.186 1.186 0 0 1 .306.014.927.927 0 0 1 .407.191 1.2 1.2 0 0 1 .208 1.265.744.744 0 0 1 -.795.552z" transform="translate(-129.931 -215.555)"/><path d="m276.341 226.562a.9.9 0 0 0 -.324-.1 4.734 4.734 0 0 0 -.544-.03h-9.847-.25c-.068 0-.137 0-.206-.006a.841.841 0 0 1 -.793-.917c0-.127 0-.255 0-.382 0-.159.005-.322 0-.485a1.685 1.685 0 0 1 .87-1.673l1.021-.589q.663-.381 1.326-.765 2.131-1.237 4.256-2.478l1.653-.964a1.825 1.825 0 0 0 .852-1.19 1.223 1.223 0 0 0 -.126-.988.97.97 0 0 0 -.691-.414 3.786 3.786 0 0 0 -.508-.029h-20.838a2.536 2.536 0 0 0 -.444.029 2.01 2.01 0 0 0 -.532.157.493.493 0 0 0 -.312.512.548.548 0 0 0 .363.458 2.137 2.137 0 0 0 .932.175h7.994 11.091v.008l-.06.046a1.468 1.468 0 0 1 -.2.14l-2.81 1.5-1.461.778q-.834.444-1.667.889l-.914.485c-.732.388-1.488.788-2.224 1.2a1.779 1.779 0 0 0 -.928 1.7c.009.572.008 1.176 0 1.9a.788.788 0 0 1 -.505.8 1.852 1.852 0 0 1 -.575.093q-3.318.006-6.638 0h-3.493a1.747 1.747 0 0 0 -.3.021 1.607 1.607 0 0 0 -.46.148.491.491 0 0 0 -.3.515.512.512 0 0 0 .369.462 2.835 2.835 0 0 0 .772.132q3.135.006 6.269.005h3.717a3.274 3.274 0 0 1 .389.017.836.836 0 0 1 .76.948v.88 1.381q0 2.893 0 5.783a1.579 1.579 0 0 1 -.063.521.736.736 0 0 1 -.768.54c-.817-.009-1.639-.01-2.455.005a3.025 3.025 0 0 0 -.735.118.615.615 0 0 0 -.465.59.656.656 0 0 0 .491.518l.057.012a4.357 4.357 0 0 0 .831.107q1.228.009 2.455.008 1.3 0 2.6-.007a2.851 2.851 0 0 0 .7-.1.887.887 0 0 0 .652-.773 4.061 4.061 0 0 0 .051-.7q0-3.112 0-6.222v-2.085c0-.215 0-.431.006-.645a.79.79 0 0 1 .7-.87 3.286 3.286 0 0 1 .46-.024h.181c3.284 0 6.568 0 9.849-.008a2.885 2.885 0 0 0 .732-.122.536.536 0 0 0 .391-.5.554.554 0 0 0 -.354-.515z" transform="translate(-148.63 -215.555)"/><path d="m120.134 242.572a1.367 1.367 0 0 0 -.746-.165q-2.825 0-5.649 0h-3.857c-.13 0-.252 0-.373-.014a.735.735 0 0 1 -.676-.79c-.013-.885-.01-1.785-.008-2.656v-.761a.754.754 0 0 1 .482-.741.714.714 0 0 1 .291-.044h.169c2.6 0 5.21 0 7.818-.012a2.2 2.2 0 0 0 .728-.168.623.623 0 0 0 .4-.633.67.67 0 0 0 -.38-.642 1.672 1.672 0 0 0 -.82-.179h-4.156c-.994 0-2.305 0-3.634.014a.891.891 0 0 1 -.661-.248 1.068 1.068 0 0 1 -.253-.8c.022-.643.018-1.3.014-1.929 0-.295 0-.59 0-.885 0-.038 0-.077 0-.116 0-.075 0-.15 0-.224a.771.771 0 0 1 .677-.8 1.764 1.764 0 0 1 .22-.011h1.838q3.584 0 7.169-.008a2.074 2.074 0 0 0 .694-.142.654.654 0 0 0 .433-.661.644.644 0 0 0 -.456-.645 2.4 2.4 0 0 0 -.737-.122q-5.419-.009-10.839-.007h-7.182q-2.678 0-5.355.005a2.5 2.5 0 0 0 -.737.122.641.641 0 0 0 -.467.629.729.729 0 0 0 .4.675 1.265 1.265 0 0 0 .726.154h8.993c.608 0 .888.291.934.974.008.105.008.211.008.318v.021q0 .394 0 .789v1.677a1.34 1.34 0 0 1 -.257.995 1.059 1.059 0 0 1 -.786.244h-.034c-1.247-.017-2.472-.018-3.4-.018h-1.578c-.895 0-1.78 0-2.691 0a1.54 1.54 0 0 0 -.813.2.683.683 0 0 0 -.37.608.706.706 0 0 0 .375.65 1.459 1.459 0 0 0 .783.182q2.606-.006 5.213 0h2.6c.651 0 .9.259.948.988.006.09.006.181.006.272v.782q0 .832 0 1.666c0 .191-.021.389-.041.595a.638.638 0 0 1 -.307.521 1.239 1.239 0 0 1 -.5.17c-.172.012-.357.017-.6.017h-.309-.31-8.547a1.247 1.247 0 0 0 -.712.151.716.716 0 0 0 -.382.638.655.655 0 0 0 .438.656 2.166 2.166 0 0 0 .737.133q3.7.008 7.4.005h13.676q1.84 0 3.679-.008a2.168 2.168 0 0 0 .737-.146.635.635 0 0 0 .413-.628.7.7 0 0 0 -.376-.648z" transform="translate(-93.429 -220.397)"/><path d="m94.47 222.625a1.325 1.325 0 0 0 .474.115h.079c.315.006.629.013.944.013.274 0 .518-.005.744-.015a2.58 2.58 0 0 0 1.93-.96c.547-.637 1.113-1.276 1.659-1.894.561-.634 1.141-1.29 1.7-1.945a2.331 2.331 0 0 1 1.84-.9h6.82a2.181 2.181 0 0 1 1.734.781l1.841 2.113q.824.944 1.647 1.888a2.607 2.607 0 0 0 1.871.921c.228.013.476.02.759.02.261 0 .523-.006.784-.011l.264-.005c.218 0 .547-.009.673-.337a.674.674 0 0 0 -.242-.714l-.712-.807q-2.034-2.307-4.071-4.611a1.954 1.954 0 0 0 -.308-.277l-.03-.023a2.4 2.4 0 0 0 -1.511-.419h-6.071-.02-1.752c-1.459 0-2.919 0-4.377-.006h-.021a2.593 2.593 0 0 0 -2.121 1.018c-.193.239-.391.486-.6.723l-2.052 2.333-1.786 2.03a2 2 0 0 0 -.27.363.454.454 0 0 0 -.046.364.408.408 0 0 0 .227.242z" transform="translate(-93.71 -215.553)"/><path d="m170.847 215.572h-.062c-.121-.005-.241-.011-.362-.011q-12.071 0-24.138 0a3.944 3.944 0 0 0 -.584.045.871.871 0 0 0 -.72.7 3.261 3.261 0 0 0 -.093.828q-.006 10.271 0 20.542v.09a2.75 2.75 0 0 0 .008.308 1.069 1.069 0 0 0 1 1.075c.083.006.166.007.249.007h.293 24.1.121a1.632 1.632 0 0 0 .235-.015.98.98 0 0 0 .862-.813 2.633 2.633 0 0 0 .069-.568q0-10.337 0-20.672a3.985 3.985 0 0 0 -.05-.612 1 1 0 0 0 -.928-.904zm-2.308 3.631a.826.826 0 0 1 -.737.848h-.025c-.179-.007-.358 0-.54 0-.165 0-.331 0-.5 0a.78.78 0 0 1 -.762-.8 1.031 1.031 0 0 0 -1.02-1.037c-.169-.008-.338-.009-.505 0a.993.993 0 0 0 -.953.91 2.51 2.51 0 0 1 -.128.478.64.64 0 0 1 -.56.438c-.12.008-.24.01-.36.01h-.226c-.085 0-.17 0-.254 0h-.05a1.283 1.283 0 0 1 -1.182-.828 1.6 1.6 0 0 0 -1.508-.966h-.1a.764.764 0 0 0 -.589.23.948.948 0 0 0 -.121.768c0 .03.01.061.015.09.01.053.02.106.025.16.03.326-.09.5-.367.534a1.152 1.152 0 0 1 -.156.008h-8.9a.692.692 0 0 1 -.557-.177.925.925 0 0 1 -.3-.652c-.009-.568-.014-1.08 0-1.6a.862.862 0 0 1 .791-.893 1.128 1.128 0 0 1 .148-.008h18.311.154a1.08 1.08 0 0 1 .11 0 .88.88 0 0 1 .844.926c.024.525.024 1.047.002 1.558zm-20.1 2.411a.881.881 0 0 1 .65-.238q2.03.01 4.059.008h1.96q1.628 0 3.256 0a1.285 1.285 0 0 1 1.243.93c.877 2.226 1.651 4.169 2.368 5.941a2.613 2.613 0 0 1 -.039 2.174c-.384.852-.757 1.728-1.119 2.573q-.245.572-.491 1.144l-.02.043a.931.931 0 0 0 -.063.166.876.876 0 0 0 .079.765.66.66 0 0 0 .554.226h.024a1.508 1.508 0 0 0 1.251-.413 3.781 3.781 0 0 0 .525-.807c.133-.266.249-.547.36-.818.053-.13.106-.258.161-.387a1.28 1.28 0 0 1 .128-.242c.068-.1.139-.15.2-.15.084 0 .146.1.176.162.128.259.238.536.345.8.037.093.074.185.112.277.031.075.058.153.086.229.035.1.07.193.11.288a1.48 1.48 0 0 0 1.4 1.046h.26.15a.644.644 0 0 0 .521-.286.768.768 0 0 0 .043-.7c-.2-.538-.42-1.08-.629-1.606l-.179-.445c-.087-.222-.177-.442-.267-.661-.2-.49-.405-1-.585-1.5a2.177 2.177 0 0 1 .032-1.581c.277-.664.566-1.332.846-1.98q.311-.717.618-1.437a3.65 3.65 0 0 0 .252-.737.581.581 0 0 0 -.387-.753 1.14 1.14 0 0 0 -.464-.1 1.7 1.7 0 0 0 -1.472.977l-.043.095c-.189.416-.378.833-.563 1.258-.072.162-.122.262-.246.262s-.2-.09-.283-.295l-1.151-2.912c-.03-.073-.06-.148-.09-.22-.055-.135-.111-.269-.161-.408a1.769 1.769 0 0 1 -.1-.35.583.583 0 0 1 .046-.4.428.428 0 0 1 .313-.17.88.88 0 0 1 .146-.01h5.09.265c.505.019.8.349.821.928.012.281.01.569.008.849v.315q0 6.466 0 12.934a2.417 2.417 0 0 1 -.068.617.671.671 0 0 1 -.658.576c-.122.005-.242.008-.364.008h-.476-17.9c-.65 0-.9-.285-.9-1.015q0-2.365 0-4.729 0-4.731-.005-9.46a1.086 1.086 0 0 1 .266-.782z" transform="translate(-111.717 -215.554)"/><path d="m152.415 233.375v1.93a1.011 1.011 0 0 0 1.028 1.152h.7 4.065q1.176 0 2.351.005h.007a.888.888 0 0 0 .9-.61 1.94 1.94 0 0 0 .128-.691c.008-1.38.007-2.761.006-4.141v-1.424c0-.12 0-.238 0-.358a1.105 1.105 0 0 0 -.811-1.128 2.653 2.653 0 0 0 -.625-.078q-.723 0-1.445 0h-1.709a.077.077 0 0 0 -.024 0h-2.6c-.258 0-.517 0-.776.008a1.18 1.18 0 0 0 -1.213 1.356c.026 1.319.022 2.671.018 3.979zm2.687-1.688c0-.465 0-.928 0-1.391s.161-1.015.891-1.024c.331 0 .663-.005.994-.005s.664 0 1 .005c.585 0 .871.324.874.976v1.481c0 .832 0 1.693.008 2.54.01.621-.283.977-.825 1-.416.019-.781.029-1.113.029-.352 0-.674-.01-.983-.032-.413-.029-.837-.175-.841-1.043 0-.431 0-.864 0-1.3v-1.244z" transform="translate(-114.388 -219.985)"/><path d="m160.765 244.536a1.873 1.873 0 0 0 -.59-.081q-3.35-.008-6.7 0a2.769 2.769 0 0 0 -.507.046.787.787 0 0 0 -.315.136.491.491 0 0 0 -.229.378.511.511 0 0 0 .213.4 1 1 0 0 0 .67.193h5.336q.816 0 1.633 0a1.483 1.483 0 0 0 .517-.079.5.5 0 0 0 .369-.506.511.511 0 0 0 -.397-.487z" transform="translate(-114.396 -225.824)"/></g></svg>