<?xml version="1.0" encoding="utf-8"?>
<!-- Generator: Adobe Illustrator 25.4.1, SVG Export Plug-In . SVG Version: 6.00 Build 0)  -->
<svg version="1.1" id="圖層_1" xmlns="http://www.w3.org/2000/svg" xmlns:xlink="http://www.w3.org/1999/xlink" x="0px" y="0px"
	 viewBox="0 0 128 24" style="enable-background:new 0 0 128 24;" xml:space="preserve">
<style type="text/css">
	.st0{fill:#FFFFFF;}
</style>
<g>
	<path class="st0" d="M93.35,22.49c-0.2-0.06-0.46-0.13-0.73-0.13c-2.37-0.01-4.74-0.01-7.11-0.01l-3,0c-0.24,0-0.42-0.01-0.6-0.02
		c-0.21-0.02-0.39-0.14-0.5-0.35c-0.21-0.42-0.22-0.86-0.02-1.29c0.13-0.29,0.36-0.43,0.7-0.43c0.03,0,0.06,0,0.09,0
		c0.02,0,0.04,0,0.06,0l0.1,0l8.49,0c0.46,0,0.92,0,1.39,0c0.61,0,1-0.33,1.13-0.96c0.03-0.15,0.03-0.3,0.03-0.45v-0.03
		c0-1.67,0-3.35,0-5.02v-0.02c0-0.14,0-0.28-0.02-0.42c-0.07-0.47-0.39-1.03-1.01-0.99c-0.1,0.01-0.21,0-0.31,0
		c-0.06,0-0.12,0-0.17,0H79.85c-3.81,0-7.63,0-11.44,0c-0.11,0-0.22,0-0.33,0c-0.3,0-0.59,0-0.88,0.01
		c-0.55,0.03-0.94,0.47-0.94,1.07c-0.01,1.77-0.01,3.63,0,5.71c0,0.59,0.38,1.04,0.92,1.1c0.06,0.01,0.13,0.01,0.22,0.01l9.86,0
		h0.15c0.09,0,0.18,0,0.27,0.01c0.29,0.02,0.5,0.19,0.6,0.48c0.06,0.17,0.09,0.36,0.1,0.56c0.01,0.21,0.01,0.41,0.01,0.62
		c0,0.25,0,0.5,0.01,0.75c0.03,0.54,0.37,0.93,0.87,1c0.1,0.01,0.2,0.01,0.3,0.01l0.77,0l1.44,0l4.78,0c1.99,0,3.98,0,5.98,0
		c0.25,0,0.52-0.04,0.8-0.12c0.27-0.07,0.42-0.28,0.42-0.56C93.74,22.75,93.6,22.56,93.35,22.49z M89.48,15.7
		c-0.84,0.01-1.69,0.01-2.53,0.01c-0.37,0-0.74,0-1.11,0h-1.44c-0.7,0-1.39,0-2.09,0c-0.13,0-0.29,0-0.42-0.05
		c-0.28-0.1-0.49-0.36-0.59-0.71c-0.11-0.4-0.04-0.82,0.19-1.1c0.14-0.18,0.32-0.27,0.54-0.28c0.1,0,0.19,0,0.29,0l0.39,0h2.75
		c1.37,0,2.74,0,4.11,0c0.47,0,0.74,0.2,0.83,0.61c0.11,0.51,0.06,0.93-0.15,1.19C90.08,15.59,89.83,15.69,89.48,15.7z M82.12,16.86
		c0.31,0,0.63,0,0.94,0l2.82,0c0.34,0,0.67,0,1.01,0c0.37,0,0.74,0,1.11,0c0.59,0,1.08-0.01,1.53-0.02h0.03
		c0.25,0,0.49,0.1,0.65,0.29c0.18,0.2,0.27,0.48,0.24,0.77c-0.01,0.07,0,0.14,0,0.2c0,0.05,0,0.09,0,0.14
		c-0.03,0.41-0.26,0.71-0.61,0.78c-0.15,0.03-0.3,0.03-0.44,0.03c-2.37,0-4.73,0-7.1,0c-0.14,0-0.3-0.02-0.47-0.05
		c-0.19-0.04-0.34-0.18-0.43-0.39c-0.19-0.46-0.19-0.91,0.01-1.34C81.52,16.99,81.75,16.86,82.12,16.86z M78.2,15.31
		c-0.18,0.3-0.47,0.38-0.69,0.39c-0.15,0.01-0.31,0.01-0.47,0.01l-6.74,0l-0.13,0c-0.07,0-0.13,0-0.2-0.01
		c-0.51-0.06-0.8-0.43-0.8-1c0-0.19,0.01-0.47,0.1-0.67c0.13-0.31,0.38-0.46,0.74-0.46c0.55,0,1.1,0,1.66,0l2.11,0l2.06,0
		c0.54,0,1.08,0,1.63,0c0.42,0,0.67,0.14,0.8,0.46C78.45,14.48,78.43,14.92,78.2,15.31z M70.04,16.86c0.51,0,1.03,0,1.55,0l3.93,0
		c0.64,0,1.29,0,1.93,0c0.43,0,0.68,0.14,0.81,0.47c0.21,0.55,0.18,1.03-0.09,1.43c-0.07,0.11-0.22,0.2-0.44,0.28
		c-0.09,0.03-0.19,0.04-0.27,0.04l-0.19,0H76.8c-0.59,0-1.17,0-1.76,0c-0.59,0-1.17,0-1.76,0c-1.23,0-2.18,0-3.08,0.01h-0.02
		c-0.35,0-0.61-0.09-0.78-0.27c-0.18-0.2-0.27-0.51-0.24-0.94C69.2,17.18,69.48,16.86,70.04,16.86z"/>
	<path class="st0" d="M77.51,3.64c-0.07,0-0.14,0-0.21,0l-5.79,0c-1.4,0-2.79,0-4.19,0c-0.68,0-1.07,0.43-1.07,1.19
		c0,1.47,0,2.94,0,4.42v0.73c0,0.07,0,0.15,0,0.22c0.03,0.49,0.28,0.83,0.7,0.97c0.41,0.13,0.84,0.15,1.39,0.03
		c0.35-0.07,0.58-0.28,0.71-0.64c0.06-0.19,0.1-0.4,0.1-0.6c0-0.77,0-1.53,0-2.3c0-0.61,0-1.21,0-1.82c0-0.52,0.28-0.89,0.69-0.9
		c0.73-0.03,1.5-0.03,2.42-0.01c0.1,0,0.23,0.03,0.28,0.13c0.06,0.1,0.03,0.26-0.07,0.43c-0.1,0.17-0.2,0.33-0.31,0.49
		C72.12,6.07,72.06,6.16,72,6.25c-0.07,0.11-0.14,0.21-0.21,0.32c-0.18,0.28-0.37,0.57-0.53,0.88c-0.15,0.28-0.1,0.47-0.05,0.57
		c0.06,0.1,0.18,0.22,0.47,0.24c0.11,0.01,0.23,0.01,0.34,0.01l0.31,0c0.1,0,0.2,0,0.3,0.01c0.16,0.01,0.3,0.04,0.42,0.08
		c0.08,0.03,0.13,0.08,0.15,0.13c0.03,0.07,0.02,0.16-0.03,0.26c-0.03,0.07-0.08,0.14-0.13,0.21l-0.38,0.58
		c-0.15,0.23-0.3,0.46-0.45,0.68l-0.01,0.02c-0.05,0.08-0.1,0.15-0.14,0.24c-0.02,0.05-0.03,0.19,0.03,0.24
		c0.06,0.05,0.14,0.08,0.23,0.07c0.08-0.01,0.15-0.07,0.2-0.11c1.11-0.88,2.22-1.75,3.32-2.63l0.03-0.02
		c0.14-0.11,0.34-0.27,0.24-0.54c-0.08-0.23-0.3-0.23-0.45-0.23l-0.06,0c-0.11,0-0.22,0-0.33,0l-0.34,0c-0.1,0-0.21,0-0.31,0
		c-0.13,0-0.24-0.03-0.33-0.07c-0.15-0.08-0.18-0.16-0.11-0.35c0.03-0.09,0.07-0.15,0.1-0.21C74.5,6.31,74.72,6,74.94,5.69
		l0.41-0.58c0.09-0.13,0.2-0.19,0.36-0.19c0.19,0,0.37,0,0.56,0h0.49c0.27,0,0.55,0,0.82,0.01c0.44,0.01,0.75,0.34,0.8,0.85
		c0.01,0.11,0.01,0.21,0.01,0.33v1c0,0.91,0,1.82,0,2.73v0.03c0,0.16,0,0.33,0.03,0.49c0.07,0.41,0.3,0.69,0.66,0.8
		c0.25,0.07,0.5,0.11,0.75,0.11c0.26,0,0.51-0.04,0.76-0.12c0.13-0.04,0.26-0.12,0.39-0.24c0.26-0.23,0.29-0.56,0.29-0.88V6.83
		c0-0.1,0-0.21,0-0.31c0-0.21,0-0.42,0.01-0.63c0.03-0.59,0.33-0.95,0.79-0.96c0.67-0.01,1.33-0.01,2,0l0.54,0
		c0.17,0,0.28,0.03,0.34,0.18c0.05,0.14,0.02,0.26-0.1,0.44c-0.32,0.48-0.64,0.96-0.95,1.45l-0.04,0.06
		c-0.08,0.12-0.16,0.24-0.22,0.38c-0.14,0.31-0.09,0.5-0.02,0.61c0.06,0.09,0.19,0.21,0.47,0.22c0.1,0.01,0.2,0.01,0.3,0.01l0.36,0
		c0.1,0,0.19,0,0.29,0.01c0.14,0.01,0.28,0.04,0.41,0.1c0.07,0.03,0.12,0.07,0.14,0.13c0.02,0.06,0.02,0.15-0.03,0.24
		c-0.03,0.07-0.08,0.14-0.13,0.21l-0.33,0.51c-0.17,0.26-0.35,0.53-0.52,0.79c-0.05,0.08-0.09,0.16-0.13,0.25
		c-0.02,0.04-0.04,0.08-0.06,0.12c-0.02,0.04-0.01,0.08,0.03,0.1c0.09,0.06,0.16,0.09,0.24,0.09c0.11,0,0.18-0.06,0.24-0.11
		l0.02-0.02c0.28-0.22,0.56-0.44,0.84-0.66l0.72-0.57c0.55-0.43,1.1-0.87,1.64-1.3c0.1-0.08,0.21-0.18,0.3-0.29
		c0.1-0.12,0.13-0.25,0.09-0.36c-0.04-0.1-0.13-0.18-0.26-0.21c-0.14-0.03-0.28-0.04-0.43-0.04c-0.12,0-0.24,0-0.36,0
		c-0.07,0-0.14,0-0.21,0c-0.16,0-0.29,0-0.41-0.02c-0.1-0.01-0.23-0.04-0.29-0.14C86.48,7,86.51,6.87,86.59,6.71
		c0.02-0.04,0.04-0.07,0.06-0.1l0.32-0.46c0.24-0.35,0.49-0.7,0.73-1.05c0.09-0.13,0.18-0.18,0.32-0.18c0.1,0,0.2,0,0.3,0l0.67,0
		c0.21,0,0.42,0,0.63,0.01c0.67,0.03,0.82,0.55,0.82,0.99c0,0.89,0,1.78,0,2.67v1.23c0,0.14,0,0.29,0.01,0.43
		c0.04,0.45,0.3,0.79,0.7,0.92c0.36,0.12,0.76,0.14,1.2,0.07c0.69-0.11,1.01-0.53,1.01-1.33c0-1.65,0-3.29,0-4.93
		c0-0.91-0.38-1.33-1.19-1.33h-2.5l-6.28,0c-0.43,0-0.86,0-1.29,0c-0.43-0.01-0.69-0.21-0.8-0.66c-0.14-0.54-0.02-1.02,0.33-1.23
		c0.17-0.11,0.41-0.12,0.57-0.12c1.54,0,3.09,0,4.63-0.01c1.79,0,3.58,0,5.36-0.01c0.22,0,0.43-0.05,0.64-0.1
		c0.06-0.02,0.13-0.03,0.19-0.05c0.26-0.06,0.42-0.25,0.43-0.51c0.01-0.31-0.23-0.45-0.39-0.54c-0.08-0.05-0.18-0.06-0.25-0.07
		l-0.13-0.01c-0.18-0.02-0.37-0.04-0.56-0.04c-8.21,0-16.42,0-24.63,0c-0.24,0-0.47,0.03-0.7,0.05l-0.06,0.01
		c-0.1,0.01-0.2,0.04-0.28,0.09C66.24,0.6,66.13,0.78,66.15,1c0.03,0.23,0.17,0.41,0.38,0.46c0.05,0.01,0.1,0.03,0.15,0.04
		c0.22,0.06,0.45,0.12,0.68,0.12c1.85,0.01,3.7,0.01,5.56,0.01l4.32,0c0.04,0,0.09,0,0.13,0c0.11,0,0.22,0,0.3,0.01
		c0.18,0.05,0.31,0.11,0.41,0.19c0.29,0.27,0.37,0.75,0.21,1.25C78.17,3.46,77.93,3.63,77.51,3.64z"/>
	<path class="st0" d="M127.15,11.21c-0.09-0.05-0.2-0.08-0.32-0.1c-0.17-0.02-0.35-0.03-0.54-0.03c-3.26,0-6.51,0-9.77,0l-0.25,0
		c-0.07,0-0.14,0-0.2-0.01c-0.48-0.03-0.77-0.37-0.79-0.91c0-0.13,0-0.25,0-0.38c0-0.16,0-0.32,0-0.48
		c-0.03-0.76,0.25-1.3,0.86-1.66c0.34-0.2,0.67-0.39,1.01-0.58c0.44-0.25,0.88-0.5,1.31-0.76c1.41-0.82,2.82-1.64,4.22-2.46
		l1.64-0.95c0.43-0.25,0.71-0.65,0.85-1.18c0.09-0.37,0.05-0.72-0.12-0.98c-0.15-0.23-0.39-0.37-0.69-0.41
		c-0.18-0.03-0.36-0.03-0.5-0.03H103.2c-0.14,0-0.29,0-0.44,0.03c-0.18,0.03-0.36,0.08-0.53,0.16c-0.22,0.1-0.33,0.28-0.31,0.51
		c0.02,0.2,0.14,0.35,0.36,0.45c0.26,0.12,0.54,0.17,0.92,0.17c2.64,0,5.28,0,7.93,0l11,0c0,0,0,0.01,0,0.01
		c-0.02,0.01-0.04,0.03-0.06,0.05c-0.07,0.05-0.13,0.1-0.2,0.14c-0.93,0.5-1.86,0.99-2.79,1.49l-1.45,0.77
		c-0.55,0.29-1.1,0.59-1.65,0.88c-0.3,0.16-0.6,0.32-0.91,0.48c-0.73,0.38-1.48,0.78-2.21,1.19c-0.62,0.35-0.93,0.92-0.92,1.69
		c0.01,0.57,0.01,1.17,0,1.89c0,0.29-0.09,0.66-0.5,0.8c-0.17,0.06-0.37,0.09-0.57,0.09c-2.19,0-4.39,0-6.58,0h-3.3l-0.17,0
		c-0.09,0-0.2,0-0.3,0.02c-0.17,0.03-0.32,0.08-0.46,0.15c-0.22,0.11-0.32,0.29-0.3,0.51c0.02,0.23,0.16,0.4,0.37,0.46
		c0.21,0.06,0.49,0.13,0.77,0.13c2.07,0,4.14,0,6.22,0.01l3.55,0h0.14c0.12,0,0.25,0,0.39,0.02c0.49,0.06,0.75,0.38,0.76,0.94
		c0,0.29,0,0.58,0,0.87v1.37c0,1.91,0,3.82,0,5.74c0,0.18-0.01,0.37-0.06,0.52c-0.13,0.36-0.37,0.54-0.76,0.54h0
		c-0.81-0.01-1.63-0.01-2.43,0c-0.21,0-0.45,0.04-0.73,0.12c-0.27,0.07-0.49,0.34-0.46,0.59c0.02,0.2,0.23,0.46,0.49,0.51l0.06,0.01
		c0.27,0.05,0.54,0.11,0.82,0.11c0.81,0.01,1.62,0.01,2.44,0.01c0.86,0,1.72,0,2.58-0.01c0.2,0,0.42-0.03,0.69-0.1
		c0.35-0.09,0.58-0.36,0.65-0.77c0.03-0.2,0.05-0.42,0.05-0.7c0-2.06,0-4.11,0-6.17v-2.07c0-0.21,0-0.43,0.01-0.64
		c0.02-0.51,0.26-0.8,0.69-0.86c0.14-0.02,0.28-0.02,0.46-0.02h0.18c3.26,0,6.51,0,9.77-0.01c0.25,0,0.51-0.06,0.73-0.12
		c0.22-0.06,0.37-0.25,0.39-0.5C127.52,11.46,127.32,11.31,127.15,11.21z"/>
	<g>
		<path class="st0" d="M26.98,22.29c-0.25-0.15-0.51-0.16-0.74-0.16c-1.87,0-3.74,0-5.6,0h-3.82c-0.13,0-0.25,0-0.37-0.01
			c-0.41-0.05-0.66-0.34-0.67-0.78c-0.01-0.88-0.01-1.77-0.01-2.63l0-0.75c0-0.35,0.16-0.6,0.48-0.74c0.09-0.04,0.19-0.04,0.29-0.04
			l0.17,0c2.58,0,5.17,0,7.75-0.01c0.25,0,0.51-0.09,0.72-0.17c0.26-0.09,0.4-0.32,0.4-0.63c0-0.29-0.12-0.5-0.38-0.64
			c-0.29-0.16-0.59-0.18-0.81-0.18h-1.02l-3.1,0c-0.99,0-2.29,0-3.6,0.01c-0.27,0-0.5-0.08-0.66-0.25c-0.18-0.18-0.26-0.46-0.25-0.8
			c0.02-0.64,0.02-1.29,0.01-1.91c0-0.29,0-0.59,0-0.88c0-0.04,0-0.08,0-0.11c0-0.08,0-0.15,0-0.22c0.03-0.46,0.27-0.75,0.67-0.8
			c0.08-0.01,0.15-0.01,0.22-0.01l0.15,0h1.67c2.37,0,4.74,0,7.11-0.01c0.21,0,0.44-0.05,0.69-0.14c0.27-0.1,0.43-0.34,0.43-0.66
			c0-0.31-0.17-0.55-0.45-0.64c-0.24-0.08-0.49-0.12-0.73-0.12c-3.58-0.01-7.17-0.01-10.75-0.01H7.65c-1.77,0-3.54,0-5.31,0.01
			c-0.23,0-0.47,0.04-0.73,0.12C1.32,9.23,1.16,9.45,1.15,9.76c-0.01,0.36,0.19,0.54,0.4,0.67c0.24,0.15,0.49,0.15,0.72,0.15h0.03
			l5.14,0l3.75,0c0.6,0,0.88,0.29,0.93,0.97c0.01,0.1,0.01,0.21,0.01,0.31v0.02c0,0.26,0,0.52,0,0.78c0,0.54,0,1.11,0,1.66
			c0.01,0.5-0.07,0.8-0.26,0.99c-0.16,0.16-0.42,0.24-0.78,0.24h-0.03c-1.24-0.02-2.45-0.02-3.37-0.02c-0.52,0-1.05,0-1.57,0
			c-0.89,0-1.77,0-2.67,0c-0.32,0-0.58,0.06-0.81,0.2c-0.24,0.14-0.36,0.34-0.37,0.6c0,0.28,0.12,0.49,0.37,0.64
			c0.26,0.16,0.54,0.18,0.78,0.18c1.72,0,3.45,0,5.17,0h2.58c0.64,0,0.89,0.26,0.94,0.98c0.01,0.09,0.01,0.18,0.01,0.27l0,0.77
			c0,0.55,0,1.1,0,1.65c0,0.19-0.02,0.39-0.04,0.59c-0.02,0.24-0.13,0.42-0.31,0.52c-0.18,0.1-0.35,0.16-0.5,0.17
			c-0.17,0.01-0.35,0.02-0.59,0.02c-0.1,0-0.21,0-0.31,0c-0.1,0-0.2,0-0.31,0l-4.24,0l-4.24,0c-0.22,0-0.47,0-0.71,0.15
			C0.7,22.39,0.5,22.57,0.5,22.91c0,0.31,0.16,0.55,0.43,0.65c0.24,0.09,0.49,0.13,0.73,0.13c2.45,0,4.89,0,7.34,0h4.9
			c1.98,0,3.95,0,5.93,0l2.74,0c1.22,0,2.43,0,3.65-0.01c0.23,0,0.48-0.05,0.73-0.15c0.26-0.1,0.41-0.32,0.41-0.62
			C27.36,22.65,27.24,22.44,26.98,22.29z"/>
		<path class="st0" d="M1.25,7.31c0.17,0.07,0.33,0.11,0.47,0.11l0.08,0c0.31,0.01,0.62,0.01,0.94,0.01c0.27,0,0.51,0,0.74-0.01
			c0.77-0.03,1.39-0.35,1.91-0.95c0.54-0.63,1.1-1.27,1.65-1.88c0.56-0.63,1.13-1.28,1.69-1.93c0.52-0.6,1.11-0.9,1.82-0.9l6.76,0
			c0.7,0,1.26,0.25,1.72,0.77c0.61,0.7,1.22,1.4,1.83,2.09c0.54,0.63,1.09,1.25,1.63,1.87c0.49,0.56,1.11,0.87,1.86,0.91
			c0.23,0.01,0.47,0.02,0.75,0.02c0.26,0,0.52-0.01,0.78-0.01l0.26-0.01c0.22,0,0.54-0.01,0.67-0.33c0.12-0.31-0.08-0.53-0.24-0.71
			l-0.71-0.8c-1.35-1.53-2.69-3.05-4.04-4.57c-0.09-0.11-0.21-0.19-0.31-0.27l-0.03-0.02c-0.49-0.37-1.03-0.42-1.5-0.42
			c-1.01,0-2.01,0-3.02,0h-3c-0.01,0-0.01,0-0.02,0c-0.58,0-1.16,0-1.74,0c-1.45,0-2.89,0-4.34-0.01H7.84
			c-0.86,0-1.55,0.33-2.1,1.01C5.55,1.55,5.35,1.79,5.15,2.02C4.47,2.8,3.79,3.57,3.11,4.34L1.34,6.35c-0.1,0.11-0.2,0.23-0.27,0.36
			C1,6.83,0.99,6.96,1.03,7.07C1.06,7.18,1.14,7.26,1.25,7.31z"/>
	</g>
	<path class="st0" d="M59.14,0.31l-0.06,0c-0.12-0.01-0.24-0.01-0.36-0.01c-7.98,0-15.96,0-23.94,0c-0.18,0-0.38,0.01-0.58,0.05
		c-0.35,0.05-0.61,0.3-0.71,0.69c-0.06,0.23-0.09,0.51-0.09,0.82c0,6.79,0,13.58,0,20.37v0.09c0,0.1,0,0.2,0.01,0.31
		c0.07,0.64,0.43,1.03,1,1.07c0.08,0.01,0.17,0.01,0.25,0.01l0.29,0h17.8h5.98c0.04,0,0.08,0,0.11,0c0.04,0,0.08,0,0.12,0
		c0.09,0,0.17,0,0.23-0.01c0.46-0.07,0.75-0.35,0.86-0.81c0.05-0.21,0.07-0.39,0.07-0.56c0-6.83,0-13.67,0-20.5
		c0-0.19-0.02-0.39-0.05-0.61C59.99,0.69,59.61,0.34,59.14,0.31z M56.85,3.92c-0.02,0.46-0.35,0.84-0.73,0.84h-0.03
		c-0.18-0.01-0.36-0.01-0.53,0c-0.16,0-0.33,0-0.49,0c-0.55-0.02-0.72-0.44-0.76-0.79c-0.07-0.64-0.44-1.01-1.01-1.03
		c-0.17-0.01-0.34-0.01-0.5,0c-0.5,0.02-0.84,0.35-0.95,0.9c-0.03,0.15-0.06,0.32-0.13,0.47c-0.11,0.27-0.3,0.42-0.55,0.43
		c-0.12,0.01-0.24,0.01-0.36,0.01l-0.22,0c-0.08,0-0.17,0-0.25,0l-0.05,0c-0.51,0-0.89-0.27-1.17-0.82
		c-0.32-0.64-0.82-0.96-1.5-0.96c-0.03,0-0.06,0-0.1,0c-0.28,0.01-0.47,0.09-0.58,0.23c-0.14,0.16-0.17,0.4-0.12,0.76
		c0,0.03,0.01,0.06,0.02,0.09c0.01,0.05,0.02,0.11,0.03,0.16c0.03,0.32-0.09,0.5-0.36,0.53c-0.05,0.01-0.1,0.01-0.15,0.01h-0.1
		c-2.88,0-5.75,0-8.63,0h-0.11c-0.21,0-0.39-0.01-0.55-0.18c-0.2-0.2-0.29-0.41-0.3-0.65c-0.01-0.56-0.01-1.07,0-1.58
		c0.01-0.5,0.32-0.84,0.78-0.89c0.05-0.01,0.1-0.01,0.15-0.01l18.16,0l0.15,0c0.04,0,0.07,0,0.11,0c0.49,0.03,0.82,0.38,0.84,0.92
		C56.87,2.89,56.87,3.41,56.85,3.92z M36.92,6.31c0.16-0.16,0.37-0.24,0.64-0.24c1.34,0.01,2.68,0.01,4.03,0.01h1.94
		c1.08,0,2.15,0,3.23,0c0.58,0,0.99,0.31,1.23,0.92c0.87,2.21,1.64,4.13,2.35,5.89c0.3,0.74,0.29,1.43-0.04,2.16
		c-0.38,0.85-0.75,1.71-1.11,2.55c-0.16,0.38-0.32,0.76-0.49,1.13l-0.02,0.04c-0.02,0.05-0.05,0.11-0.06,0.16
		c-0.08,0.32-0.06,0.58,0.08,0.76c0.11,0.15,0.3,0.22,0.55,0.22c0,0,0,0,0,0h0.02c0.44-0.01,0.89-0.01,1.24-0.41
		c0.19-0.21,0.36-0.48,0.52-0.8c0.13-0.26,0.25-0.54,0.36-0.81c0.05-0.13,0.11-0.26,0.16-0.38c0.03-0.08,0.07-0.17,0.13-0.24
		c0.07-0.1,0.14-0.15,0.2-0.15c0.08,0,0.15,0.1,0.18,0.16c0.13,0.26,0.24,0.53,0.34,0.8c0.04,0.09,0.07,0.18,0.11,0.27
		c0.03,0.08,0.06,0.15,0.08,0.23c0.04,0.1,0.07,0.19,0.11,0.29c0.29,0.69,0.76,1.04,1.39,1.04h0.08l0.17,0c0.05,0,0.1,0,0.15,0
		c0.22-0.01,0.4-0.11,0.52-0.28c0.12-0.19,0.14-0.44,0.04-0.69c-0.2-0.53-0.42-1.07-0.62-1.59l-0.18-0.44
		c-0.09-0.22-0.18-0.44-0.27-0.66c-0.2-0.48-0.4-0.99-0.58-1.49c-0.19-0.53-0.17-1.07,0.03-1.57c0.27-0.66,0.56-1.32,0.84-1.96
		c0.21-0.47,0.41-0.95,0.61-1.43c0.1-0.24,0.2-0.48,0.25-0.73c0.07-0.38-0.03-0.59-0.38-0.75c-0.14-0.06-0.3-0.09-0.46-0.09
		c-0.59,0-1.2,0.41-1.46,0.97L52.8,9.3c-0.19,0.41-0.37,0.83-0.56,1.25c-0.07,0.16-0.12,0.26-0.24,0.26c-0.12,0-0.2-0.09-0.28-0.29
		l-1.14-2.89c-0.03-0.07-0.06-0.15-0.09-0.22c-0.05-0.13-0.11-0.27-0.16-0.4c-0.03-0.09-0.08-0.22-0.1-0.35
		c-0.03-0.18-0.01-0.31,0.05-0.4c0.06-0.09,0.16-0.14,0.31-0.17c0.05-0.01,0.1-0.01,0.14-0.01l0.11,0l4.94,0c0.09,0,0.17,0,0.26,0
		c0.5,0.02,0.79,0.34,0.81,0.92c0.01,0.28,0.01,0.56,0.01,0.84l0,0.31c0,4.27,0,8.55,0,12.83c0,0.24-0.02,0.44-0.07,0.61
		c-0.09,0.36-0.31,0.56-0.65,0.57c-0.12,0-0.24,0.01-0.36,0.01l-0.47,0h-8.54c0,0-0.01,0-0.01,0c-3.07,0-6.13,0-9.2,0
		c-0.64,0-0.9-0.28-0.9-1.01c0-1.56,0-3.13,0-4.69c0-3.13,0-6.25-0.01-9.38C36.65,6.75,36.74,6.48,36.92,6.31z"/>
	<path class="st0" d="M38.21,13.58c0,0.64,0,1.28,0,1.91c0,0.71,0.38,1.14,1.02,1.14c0.23,0,0.46,0,0.7,0l4.03,0
		c0.78,0,1.55,0,2.33,0h0.01c0.43,0,0.73-0.2,0.89-0.6c0.08-0.21,0.13-0.45,0.13-0.69c0.01-1.37,0.01-2.74,0.01-4.11V9.99V9.83
		c0-0.12,0-0.24,0-0.35c-0.02-0.58-0.32-1-0.8-1.12c-0.19-0.05-0.4-0.08-0.62-0.08c-0.48,0-0.96,0-1.43,0h-1.7
		c-0.01,0-0.02,0-0.02,0h-1.71l-0.86,0c-0.26,0-0.51,0-0.77,0.01c-0.78,0.02-1.22,0.51-1.2,1.34
		C38.22,10.94,38.22,12.28,38.21,13.58z M40.88,11.9c0-0.46,0-0.92,0-1.38c0-0.46,0.16-1.01,0.88-1.02c0.33,0,0.66,0,0.99,0
		c0.33,0,0.66,0,0.99,0c0.58,0,0.86,0.32,0.87,0.97c0,0.49,0,0.98,0,1.47c0,0.82,0,1.68,0.01,2.52c0.01,0.62-0.28,0.97-0.82,1
		c-0.41,0.02-0.77,0.03-1.1,0.03c-0.35,0-0.67-0.01-0.97-0.03c-0.41-0.03-0.83-0.17-0.83-1.03c0-0.43,0-0.86,0-1.29l0-0.64
		L40.88,11.9z M46.3,16.56L46.3,16.56L46.3,16.56L46.3,16.56z"/>
	<path class="st0" d="M46.49,18.85c-0.16-0.05-0.35-0.08-0.59-0.08c-2.21-0.01-4.43,0-6.65,0c-0.17,0-0.34,0.02-0.5,0.05
		c-0.11,0.02-0.22,0.06-0.31,0.14c-0.14,0.1-0.22,0.23-0.23,0.37c0,0.14,0.07,0.29,0.21,0.4c0.21,0.17,0.44,0.19,0.66,0.19
		c0.47,0,0.93,0,1.4,0l3.89,0c0.54,0,1.08,0,1.62,0c0.15,0,0.34-0.01,0.51-0.08c0.25-0.1,0.37-0.26,0.36-0.5
		C46.87,18.99,46.58,18.89,46.49,18.85z"/>
</g>
</svg>
